<svg aria-hidden="true" style="position: absolute; width: 0; height: 0; overflow: hidden;" version="1.1" xmlns="http://www.w3.org/2000/svg" xmlns:xlink="http://www.w3.org/1999/xlink">
    <defs>
        <symbol id="icon-arrow" viewBox="0 0 19 32">
            <path d="M16.809 30.142c-0.781 0.781-2.047 0.781-2.828 0l-12.728-12.728c-0.781-0.781-0.781-2.047 0-2.828l12.728-12.728c0.781-0.781 2.047-0.781 2.828 0s0.781 2.047 0 2.828l-11.314 11.314 11.314 11.314c0.781 0.781 0.781 2.047 0 2.828z"></path>
        </symbol>
        <symbol id="icon-check" viewBox="0 0 32 32">
            <path d="M27.48 6.943c0.584 0.449 0.693 1.286 0.244 1.87l-13.333 17.333c-0.234 0.304-0.587 0.493-0.97 0.517s-0.758-0.116-1.029-0.388l-6.667-6.667c-0.521-0.521-0.521-1.365 0-1.886s1.365-0.521 1.886 0l5.593 5.593 12.408-16.13c0.449-0.584 1.286-0.693 1.87-0.244z"></path>
        </symbol>
        <symbol id="icon-dollar" viewBox="0 0 32 32">
            <path d="M16 3.667c-6.811 0-12.333 5.522-12.333 12.333s5.522 12.333 12.333 12.333c6.811 0 12.333-5.522 12.333-12.333s-5.522-12.333-12.333-12.333zM1.667 16c0-7.916 6.417-14.333 14.333-14.333s14.333 6.417 14.333 14.333c0 7.916-6.417 14.333-14.333 14.333s-14.333-6.417-14.333-14.333zM16 7c0.552 0 1 0.448 1 1v0.422c2.174 0.389 4 2.023 4 4.244 0 0.552-0.448 1-1 1s-1-0.448-1-1c0-0.905-0.752-1.862-2-2.203v4.626c2.174 0.389 4 2.023 4 4.244s-1.826 3.855-4 4.244v0.422c0 0.552-0.448 1-1 1s-1-0.448-1-1v-0.422c-2.174-0.389-4-2.023-4-4.244 0-0.552 0.448-1 1-1s1 0.448 1 1c0 0.905 0.752 1.862 2 2.203v-4.626c-2.174-0.389-4-2.023-4-4.244s1.826-3.855 4-4.244v-0.422c0-0.552 0.448-1 1-1zM15 10.463c-1.248 0.341-2 1.299-2 2.203s0.752 1.862 2 2.203v-4.407zM17 17.13v4.407c1.248-0.341 2-1.299 2-2.203s-0.752-1.862-2-2.203z"></path>
        </symbol>
        <symbol id="icon-location" viewBox="0 0 32 32">
            <path d="M16.114 0.001c-6.559 0-12.114 5.587-12.114 12.204 0 6.93 6.439 14.017 10.77 18.998 0.017 0.020 0.717 0.797 1.579 0.797h0.076c0.863 0 1.558-0.777 1.575-0.797 4.064-4.672 10-12.377 10-18.998 0-6.618-4.333-12.204-11.886-12.204zM16.515 29.86c-0.035 0.035-0.086 0.074-0.131 0.107-0.046-0.032-0.096-0.072-0.133-0.107l-0.523-0.602c-4.106-4.71-9.729-11.161-9.729-17.055 0-5.532 4.632-10.205 10.114-10.205 6.829 0 9.886 5.125 9.886 10.205 0 4.474-3.192 10.416-9.485 17.657zM16.035 6.056c-3.313 0-6 2.686-6 6s2.687 6 6 6 6-2.687 6-6-2.686-6-6-6zM16.035 16.055c-2.206 0-4.046-1.838-4.046-4.044s1.794-4 4-4c2.207 0 4 1.794 4 4 0.001 2.206-1.747 4.044-3.954 4.044z"></path>
        </symbol>
        <symbol id="icon-message" viewBox="0 0 24 24">
            <path d="M12 5C7.6 5 4 7.5 4 10.5C4 12.5 6 14.3 8 15.3C8 17.4 6 18.1 6 18.1C8.8 18.1 10.4 16.8 11.1 16C11.4 16 11.7 16 12 16C16.4 16 20 13.5 20 10.5C20 7.5 16.4 5 12 5ZM9 12C8.4 12 8 11.6 8 11C8 10.4 8.4 10 9 10C9.6 10 10 10.4 10 11C10 11.6 9.6 12 9 12ZM12 12C11.4 12 11 11.6 11 11C11 10.4 11.4 10 12 10C12.6 10 13 10.4 13 11C13 11.6 12.6 12 12 12ZM15 12C14.4 12 14 11.6 14 11C14 10.4 14.4 10 15 10C15.6 10 16 10.4 16 11C16 11.6 15.6 12 15 12Z"></path>
        </symbol>
        <symbol id="icon-clock" viewBox="0 0 32 32">
            <path d="M30.667 16c0 8.1-6.567 14.667-14.667 14.667s-14.667-6.567-14.667-14.667c0-8.1 6.566-14.667 14.667-14.667s14.667 6.566 14.667 14.667zM4.009 16c0 6.622 5.368 11.991 11.991 11.991s11.991-5.369 11.991-11.991c0-6.622-5.369-11.991-11.991-11.991s-11.991 5.368-11.991 11.991z"></path>
            <path d="M16 6.667c-0.736 0-1.333 0.597-1.333 1.333v8.622c0 0 0 0.348 0.169 0.609 0.113 0.222 0.289 0.414 0.521 0.548l6.16 3.556c0.638 0.368 1.453 0.15 1.821-0.488s0.15-1.453-0.488-1.821l-5.516-3.185v-7.842c0-0.736-0.597-1.333-1.333-1.333z"></path>
        </symbol>
    </defs>
</svg>